<svg id="Layer_1" enable-background="new 0 0 512.02 512.02" height="512" viewBox="0 0 512.02 512.02" width="512" xmlns="http://www.w3.org/2000/svg"><g><path d="m353.896 125.284c-42.771-62.295-84.84-110.41-86.61-112.428l-11.276-12.856-11.276 12.856c-1.77 2.018-43.838 50.133-86.61 112.428-58.495 85.195-88.154 152.719-88.154 200.695 0 102.583 83.458 186.041 186.041 186.041s186.039-83.458 186.039-186.041c0-47.977-29.659-115.5-88.154-200.695z" fill="#9ee2f8"/><path d="m353.896 125.284c-42.771-62.295-84.84-110.41-86.61-112.428l-11.276-12.856v512.02c102.583 0 186.041-83.458 186.041-186.041-.001-47.977-29.66-115.5-88.155-200.695z" fill="#5ecef4"/><circle cx="256.01" cy="304.919" fill="#ff7c48" r="45.04"/><path d="m256.01 259.88v90.08c24.875 0 45.04-20.165 45.04-45.04s-20.165-45.04-45.04-45.04z" fill="#ff415b"/><path d="m342.12 319.919v-30h-27.967c-1.422-5.507-3.618-10.704-6.447-15.483l14.309-14.309-21.213-21.213-14.309 14.309c-4.779-2.829-9.976-5.025-15.483-6.447v-27.967h-30v27.967c-5.507 1.422-10.704 3.618-15.483 6.447l-14.309-14.309-21.213 21.213 14.309 14.309c-2.829 4.78-5.025 9.976-6.447 15.483h-27.967v30h27.967c1.422 5.507 3.618 10.704 6.447 15.483l-14.309 14.309 21.213 21.213 14.309-14.309c4.779 2.829 9.976 5.025 15.483 6.447v27.967h30v-27.967c5.507-1.422 10.704-3.618 15.483-6.447l14.309 14.309 21.213-21.213-14.309-14.309c2.829-4.779 5.025-9.976 6.447-15.483zm-86.11 15.04c-16.564 0-30.04-13.476-30.04-30.04s13.476-30.04 30.04-30.04 30.04 13.476 30.04 30.04-13.476 30.04-30.04 30.04z" fill="#ff415b"/><g><path d="m284.661 160.725h30v30.002h-30z" fill="#ff7c48"/></g><g><path d="m181.664 185.727h30v30.002h-30z" fill="#ff7c48"/></g><g><path d="m135.498 347.57h30v30.002h-30z" fill="#ff7c48"/></g><g><path d="m332.201 375.84h30v30.002h-30z" fill="#ff7c48"/></g><g><path d="m241.01 427.112h30v30.002h-30z" fill="#ff7c48"/></g><g><path d="m284.661 160.725h30v30.002h-30z" fill="#ff415b"/></g><g><path d="m332.201 375.84h30v30.002h-30z" fill="#ff415b"/></g><path d="m342.12 319.919v-30h-27.967c-1.422-5.507-3.618-10.704-6.447-15.483l14.309-14.309-21.213-21.213-14.309 14.309c-4.779-2.829-9.976-5.025-15.483-6.447v-27.967h-15v56.07c16.564 0 30.04 13.476 30.04 30.04s-13.476 30.04-30.04 30.04v56.07h15v-27.967c5.507-1.422 10.704-3.618 15.483-6.447l14.309 14.309 21.213-21.213-14.309-14.309c2.829-4.779 5.025-9.976 6.447-15.483z" fill="#e50058"/><path d="m256.01 427.112h15v30.002h-15z" fill="#ff415b"/></g></svg>